<svg xmlns="http://www.w3.org/2000/svg" width="1024" height="1024" viewBox="0 0 1024 1024" version="1.1"><path d="M 272.180 177.671 C 263.913 180.514, 263.580 181.200, 242.472 239 C 224.637 287.840, 214.202 316.013, 199.322 355.500 C 188.506 384.204, 186.968 389.021, 187.507 392.500 C 187.848 394.700, 188.476 403.475, 188.902 412 C 189.699 427.951, 190.735 432.537, 195.204 439.890 C 204.747 455.595, 218.748 463.958, 235.500 463.958 C 244.155 463.958, 254.186 461.140, 259.826 457.124 C 261.466 455.956, 263.066 455, 263.381 455 C 264.140 455, 264.110 555.245, 263.343 579.663 L 262.741 598.825 247.441 599.163 C 230.784 599.530, 229.339 599.986, 224.562 606.385 C 222.618 608.988, 222.500 610.475, 222.500 632.323 C 222.500 655.189, 222.532 655.545, 224.901 658.867 C 228.487 663.894, 233.941 665.952, 243.750 665.978 L 252 666 252 746 L 252 826 212.468 826 C 170.216 826, 167.525 826.282, 165.012 830.978 C 162.187 836.256, 164.128 842.705, 169.369 845.458 C 172.209 846.949, 179.487 847.074, 247.685 846.801 L 322.869 846.500 325.935 843.563 C 331.428 838.299, 329.565 829.686, 322.339 826.939 C 320.981 826.422, 309.321 826, 296.429 826 L 272.988 826 273.244 745.750 L 273.500 665.500 281.750 665.210 L 290 664.919 290 686.536 L 290 708.154 292.923 711.077 C 297.245 715.399, 302.988 715.212, 307.600 710.600 L 311 707.200 311 686.600 L 311 666 499.250 665.935 C 602.788 665.899, 693.293 665.786, 700.372 665.685 L 713.245 665.500 713.372 686.830 L 713.500 708.161 716.766 711.080 C 721.281 715.117, 726.716 715.118, 731.234 711.084 L 734.500 708.168 734.805 686.584 L 735.110 665 743.055 665 L 751 665 751 745.500 L 751 826 556.968 826 C 347.596 826, 358.406 825.727, 354.631 831.117 C 352.787 833.749, 352.489 839.177, 354.030 842.055 C 356.840 847.307, 341.115 847, 607.050 847 L 853.200 847 856.600 843.600 C 860.257 839.943, 860.961 836.204, 858.861 831.595 C 856.406 826.206, 854.670 826, 811.599 826 L 772 826 771.914 809.750 C 771.867 800.813, 771.661 778.650, 771.457 760.500 C 771.253 742.350, 771.357 713.663, 771.688 696.750 L 772.290 666 778.702 666 C 788.472 666, 793.415 664.390, 797.488 659.881 L 801 655.994 800.996 632.747 C 800.993 611.199, 800.845 609.258, 798.976 606.192 C 795.504 600.498, 790.602 599.047, 774.750 599.022 L 761 599 761 526.987 L 761 454.975 764.750 457.308 C 774.046 463.090, 786.543 465.336, 796.976 463.099 C 810.704 460.155, 823.154 450.362, 829.343 437.642 C 833.824 428.432, 835 422.440, 835 408.817 C 835 402.720, 835.508 396.038, 836.128 393.966 C 837.450 389.556, 838.960 394.337, 820.969 346 C 799.902 289.397, 785.528 250.275, 776.512 225 C 761.471 182.831, 760.438 180.654, 754.270 178.122 C 750.215 176.457, 276.998 176.014, 272.180 177.671 M 280.031 197.942 C 278.921 200.016, 270.301 223.105, 250.515 277 C 232.740 325.420, 221.385 355.939, 216.473 368.494 C 213.414 376.314, 212.508 379.698, 213.336 380.214 C 213.976 380.614, 221.025 380.910, 229 380.873 C 236.975 380.835, 253.097 380.848, 264.827 380.902 L 286.154 381 289.077 383.923 C 293.414 388.260, 293.196 393.737, 288.500 398.433 C 285.377 401.557, 285 402.506, 285 407.257 C 285 438.246, 315.969 454.504, 337.506 434.821 C 345.270 427.724, 351 414.617, 351 403.951 L 351 401 337.577 401 C 324.726 401, 324.027 400.894, 321.189 398.506 C 317.457 395.365, 316.321 390.213, 318.453 386.091 C 319.296 384.461, 320.551 382.761, 321.243 382.313 C 321.934 381.866, 329.025 381.275, 337 381 L 351.500 380.500 352.242 376 C 352.651 373.525, 353.875 364.525, 354.962 356 C 356.966 340.287, 358.898 326.506, 366.034 277 C 373.470 225.412, 377 199.979, 377 197.989 C 377 196.031, 376.243 196, 329.035 196 C 282.575 196, 281.038 196.061, 280.031 197.942 M 398 196.925 C 398 198.050, 385.105 291.546, 377.950 342.298 C 375.097 362.537, 373.067 379.400, 373.438 379.771 C 373.809 380.143, 387.327 380.624, 403.478 380.840 L 432.842 381.234 433.386 376.867 C 434.405 368.683, 439.947 301.608, 443.002 260.500 C 446.794 209.456, 446.515 211.574, 449.948 207.732 C 452.276 205.127, 453.484 204.594, 457.022 204.615 C 460.542 204.636, 461.789 205.199, 464.145 207.836 C 466.438 210.403, 466.998 211.963, 466.990 215.766 C 466.978 221.303, 461.757 288.845, 456.032 357.500 C 455.482 364.100, 455.025 372.087, 455.016 375.250 L 455 381 512.500 381 C 558.917 381, 570 380.750, 570 379.704 C 570 378.992, 569.333 370.779, 568.519 361.454 C 565.452 326.355, 564.959 320.436, 561.531 277.500 C 559.599 253.300, 557.341 225.850, 556.514 216.500 C 555.687 207.150, 555.008 198.713, 555.005 197.750 C 555 196.098, 550.593 196, 476.500 196 C 429.072 196, 398 196.366, 398 196.925 M 576.544 196.929 C 576.228 197.441, 577.106 211.728, 578.496 228.679 C 579.886 245.631, 582.133 273, 583.488 289.500 C 584.844 306, 586.876 332.325, 588.004 348 C 589.132 363.675, 590.493 377.535, 591.028 378.799 L 592.002 381.099 621.751 380.799 C 647.488 380.540, 651.477 380.298, 651.326 379 C 651.231 378.175, 645.387 336.663, 638.340 286.750 L 625.527 196 601.323 196 C 587.491 196, 576.872 196.398, 576.544 196.929 M 647.456 200.250 C 652.146 234.722, 656.805 268.516, 660.450 294.500 C 662.918 312.100, 666.533 338.366, 668.483 352.869 C 670.433 367.371, 672.274 379.634, 672.573 380.119 C 673.235 381.189, 810.687 381.319, 811.339 380.250 C 811.591 379.837, 809.541 373.875, 806.784 367 C 800.142 350.435, 783.455 305.087, 749.565 211.500 C 747.573 206, 745.452 200.262, 744.850 198.750 L 743.757 196 695.317 196 L 646.877 196 647.456 200.250 M 209.188 411.250 C 209.660 422.947, 211.507 428.235, 217.396 434.753 C 222.725 440.652, 229.739 443.359, 238.138 442.758 C 255.181 441.539, 265.884 426.565, 264.234 406.250 L 263.807 401 236.290 401 L 208.773 401 209.188 411.250 M 371.785 408.250 C 372.236 417.559, 374.300 423.930, 378.759 429.772 C 383.528 436.020, 385.527 437.669, 391.898 440.612 C 400.761 444.706, 412.088 443.634, 420.080 437.943 C 424.676 434.671, 429.905 427.154, 431.465 421.577 C 432.246 418.785, 433.189 413.012, 433.560 408.750 L 434.235 401 402.835 401 L 371.435 401 371.785 408.250 M 454.432 407.250 C 456.204 423.288, 468.300 436.729, 485.599 441.881 C 494.321 444.478, 497.455 447.459, 497.455 453.159 C 497.455 456.493, 496.860 457.736, 494.073 460.226 C 490.866 463.092, 490.354 463.221, 484.096 462.738 C 475.854 462.102, 466.572 458.018, 458.451 451.455 C 455.178 448.809, 452.275 446.344, 452 445.976 C 451.725 445.607, 450.213 443.794, 448.639 441.945 L 445.779 438.584 443.656 441.542 C 432.876 456.566, 419.423 464, 403.016 464 C 387.720 464, 375.162 457.560, 364.619 444.310 L 359.694 438.119 356.746 442.569 C 351.150 451.018, 336.351 462, 330.562 462 C 329.161 462, 329 469.071, 329 530.500 L 329 599 512.500 599 L 696 599 696 531.510 L 696 464.020 689.355 461.007 C 680.802 457.129, 674.722 452.442, 668.563 444.981 C 665.847 441.692, 663.372 439.012, 663.063 439.027 C 662.753 439.042, 661.375 440.892, 660 443.138 C 656.507 448.843, 647.971 456.402, 641.748 459.302 C 633.616 463.090, 626.767 464.321, 616.945 463.761 C 602.506 462.938, 590.363 456.090, 581.792 443.936 L 577.645 438.055 575.988 440.777 C 573.319 445.163, 563.831 453.279, 557.307 456.755 C 549.895 460.706, 535.025 464.415, 530.215 463.512 C 525.002 462.535, 522 458.973, 522 453.768 C 522 446.509, 524.697 444.249, 536 442.036 C 547.572 439.771, 557.586 432.996, 563.895 423.164 C 566.974 418.365, 570 408.763, 570 403.790 L 570 401 511.871 401 L 453.742 401 454.432 407.250 M 590.008 404.250 C 590.021 409.898, 592.052 420.329, 593.994 424.719 C 596.946 431.392, 601.713 436.568, 607.987 439.912 C 619.633 446.120, 634.575 442.970, 643.938 432.334 C 649.031 426.547, 651.925 418.782, 652.691 408.847 L 653.296 401 621.648 401 L 590 401 590.008 404.250 M 674 405.790 C 674 412.816, 676.537 421.381, 680.370 427.298 C 687.256 437.925, 694.513 442.302, 706.149 442.845 C 712.794 443.156, 714.601 442.842, 719.911 440.459 C 731.526 435.247, 737.728 425.206, 738.712 410.021 L 739.296 401 706.648 401 L 674 401 674 405.790 M 760.195 411.284 C 760.610 420.616, 760.969 422.161, 764.067 427.974 C 769.184 437.575, 777.353 442.771, 787.572 442.924 C 794.894 443.034, 801.359 440.486, 806.273 435.554 C 811.868 429.939, 813.981 423.852, 814.709 411.250 L 815.301 401 787.520 401 L 759.738 401 760.195 411.284 M 284.025 526 L 284.089 599 296.052 599 L 308.014 599 307.757 531.376 L 307.500 463.752 300.611 461.432 C 296.823 460.156, 292.011 457.737, 289.920 456.056 C 287.829 454.375, 285.632 453, 285.039 453 C 284.277 453, 283.980 474.426, 284.025 526 M 733.820 456.187 C 731.247 457.845, 726.297 460.231, 722.820 461.489 L 716.500 463.778 716.190 514.139 C 716.019 541.837, 716.180 572.263, 716.547 581.750 L 717.215 599 728.586 599 L 739.957 599 739.987 526 C 740.003 485.850, 739.676 453.039, 739.258 453.087 C 738.841 453.135, 736.394 454.530, 733.820 456.187 M 242.706 619.627 C 242.318 620.015, 242 625.883, 242 632.667 L 242 645 511.500 645 L 781 645 781 632.110 L 781 619.219 512.206 619.070 C 364.370 618.988, 243.095 619.239, 242.706 619.627" stroke="none" fill="#335c79" fill-rule="evenodd"/></svg>